<svg height="512" viewBox="0 0 128 128" width="512" xmlns="http://www.w3.org/2000/svg"><g id="Circle_Grid" data-name="Circle Grid"><circle cx="64" cy="64" fill="#ea8953" r="64"/></g><g id="icon"><path d="m60.6 67.241h-2.14v-2.171a5.218 5.218 0 0 1 1.129-3.234l1.266-1.592 1.675 1.332-1.266 1.592a3.07 3.07 0 0 0 -.664 1.9z" fill="#dbd8dd"/><path d="m56.684 70.109h-5.709a1.376 1.376 0 0 0 -1.375 1.376v6.278h7.9z" fill="#dbd8dd"/><path d="m55.848 65.073h6.5v12.69h-6.5z" fill="#575b6d"/><g fill="#dbd8dd"><path d="m29.523 35.612h2.108v10.455h-2.108z" transform="matrix(.707 -.707 .707 .707 -19.922 33.583)"/><path d="m37.91 62.463v11.569h-5.291v-11.569a1.314 1.314 0 0 1 1.314-1.314h2.667a1.314 1.314 0 0 1 1.31 1.314z"/><path d="m42.807 73.417h-2.107v-19.339a3.548 3.548 0 0 0 -1.046-2.526l-4.925-4.925 1.49-1.49 4.925 4.925a5.642 5.642 0 0 1 1.663 4.016z"/></g><path d="m70.446 79.829a3.2 3.2 0 0 1 -3.2 3.2h-10.814a3.2 3.2 0 0 1 -3.2-3.2z" fill="#575b6d"/><path d="m99.766 76.1h-2.108v-7.557a2.9 2.9 0 0 0 -2.9-2.9h-1.374v-2.107h1.376a5.012 5.012 0 0 1 5.006 5.006z" fill="#828a9e"/><path d="m89.649 63.712v-6.442a2.649 2.649 0 0 0 -2.649-2.649 2.649 2.649 0 0 0 -2.649 2.649v4.817l-4.141 9.071a.446.446 0 0 1 -.405.261h-9.781a2.361 2.361 0 0 0 -2.361 2.361v3.239h16.6z" fill="#575b6d"/><path d="m90.061 62.087-6.023 13.168a2.442 2.442 0 0 1 -2.221 1.426h-36.375l2.869 3.791h35.426l6.675-7.436z" fill="#828a9e"/><path d="m94.709 62.186v12.314h-5.06v-12.314a1.065 1.065 0 0 1 1.065-1.065h2.929a1.065 1.065 0 0 1 1.066 1.065z" fill="#575b6d"/><circle cx="93.384" cy="83.028" fill="#414451" r="11.616"/><path d="m99.729 83.03a6.344 6.344 0 0 1 -12.3 2.189 6.279 6.279 0 0 1 -.39-2.189 6.345 6.345 0 1 1 12.69 0z" fill="#828a9e"/><path d="m99.339 80.837-8.147 8.147a6.376 6.376 0 0 1 -3.763-3.766l8.147-8.147a6.385 6.385 0 0 1 3.763 3.766z" fill="#9a9eaf"/><circle cx="37.616" cy="83.028" fill="#414451" r="11.616"/><path d="m43.963 83.03a6.346 6.346 0 0 1 -12.3 2.189 6.279 6.279 0 0 1 -.39-2.189 6.347 6.347 0 1 1 12.693 0z" fill="#828a9e"/><path d="m43.573 80.837-8.151 8.147a6.376 6.376 0 0 1 -3.763-3.766l8.147-8.147a6.391 6.391 0 0 1 3.767 3.766z" fill="#9a9eaf"/><path d="m61.137 57.587 4.751 4.783a1.277 1.277 0 0 1 0 1.8 2.453 2.453 0 0 1 -3.469 0l-3.1-3.1a2.453 2.453 0 0 1 .014-3.483l.009-.009a1.277 1.277 0 0 1 1.795.009z" fill="#575b6d"/><path d="m39.976 33.724-16.576 16.476a1.338 1.338 0 0 0 1.043 2.283l11.751-.883a1.97 1.97 0 0 0 1.245-.571l3.349-3.349a1.97 1.97 0 0 0 .573-1.267l.751-11.72a1.255 1.255 0 0 0 -2.136-.969z" fill="#575b6d"/><circle cx="93.384" cy="83.028" fill="#dbd8dd" r="1.325"/><circle cx="37.616" cy="83.028" fill="#dbd8dd" r="1.325"/><circle cx="25.805" cy="36.127" fill="#eeefee" r="2.772"/></g></svg>